ModelForces
version=1
nRows=4
nColumns=157
inDegrees=no

This file contains the forces exerted on a model during a simulation.

A force is a generalized force, meaning that it can be either a force (N) or a torque (Nm).

Units are S.I. units (second, meters, Newtons, ...)
Angles are in degrees.

endheader
time	glut_med1_r	glut_med2_r	glut_med3_r	glut_min1_r	glut_min2_r	glut_min3_r	semimem_r	semiten_r	bifemlh_r	bifemsh_r	sar_r	add_long_r	add_brev_r	add_mag1_r	add_mag2_r	add_mag3_r	tfl_r	pect_r	grac_r	glut_max1_r	glut_max2_r	glut_max3_r	iliacus_r	psoas_r	quad_fem_r	gem_r	peri_r	rect_fem_r	vas_med_r	vas_int_r	vas_lat_r	med_gas_r	lat_gas_r	soleus_r	tib_post_r	flex_dig_r	flex_hal_r	tib_ant_r	per_brev_r	per_long_r	per_tert_r	ext_dig_r	ext_hal_r	glut_med1_l	glut_med2_l	glut_med3_l	glut_min1_l	glut_min2_l	glut_min3_l	semimem_l	semiten_l	bifemlh_l	bifemsh_l	sar_l	add_long_l	add_brev_l	add_mag1_l	add_mag2_l	add_mag3_l	tfl_l	pect_l	grac_l	glut_max1_l	glut_max2_l	glut_max3_l	iliacus_l	psoas_l	quad_fem_l	gem_l	peri_l	rect_fem_l	vas_med_l	vas_int_l	vas_lat_l	med_gas_l	lat_gas_l	soleus_l	tib_post_l	flex_dig_l	flex_hal_l	tib_ant_l	per_brev_l	per_long_l	per_tert_l	ext_dig_l	ext_hal_l	ercspn_r	ercspn_l	intobl_r	intobl_l	extobl_r	extobl_l	femur_lat_meniscii_r.femur_lat_r.force.X	femur_lat_meniscii_r.femur_lat_r.force.Y	femur_lat_meniscii_r.femur_lat_r.force.Z	femur_lat_meniscii_r.femur_lat_r.torque.X	femur_lat_meniscii_r.femur_lat_r.torque.Y	femur_lat_meniscii_r.femur_lat_r.torque.Z	femur_lat_meniscii_r.meniscus_lat_r.force.X	femur_lat_meniscii_r.meniscus_lat_r.force.Y	femur_lat_meniscii_r.meniscus_lat_r.force.Z	femur_lat_meniscii_r.meniscus_lat_r.torque.X	femur_lat_meniscii_r.meniscus_lat_r.torque.Y	femur_lat_meniscii_r.meniscus_lat_r.torque.Z	femur_med_meniscii_r.femur_med_r.force.X	femur_med_meniscii_r.femur_med_r.force.Y	femur_med_meniscii_r.femur_med_r.force.Z	femur_med_meniscii_r.femur_med_r.torque.X	femur_med_meniscii_r.femur_med_r.torque.Y	femur_med_meniscii_r.femur_med_r.torque.Z	femur_med_meniscii_r.meniscus_med_r.force.X	femur_med_meniscii_r.meniscus_med_r.force.Y	femur_med_meniscii_r.meniscus_med_r.force.Z	femur_med_meniscii_r.meniscus_med_r.torque.X	femur_med_meniscii_r.meniscus_med_r.torque.Y	femur_med_meniscii_r.meniscus_med_r.torque.Z	femur_med_tibia_r.tibia_upper_r.force.X	femur_med_tibia_r.tibia_upper_r.force.Y	femur_med_tibia_r.tibia_upper_r.force.Z	femur_med_tibia_r.tibia_upper_r.torque.X	femur_med_tibia_r.tibia_upper_r.torque.Y	femur_med_tibia_r.tibia_upper_r.torque.Z	femur_med_tibia_r.femur_med_r.force.X	femur_med_tibia_r.femur_med_r.force.Y	femur_med_tibia_r.femur_med_r.force.Z	femur_med_tibia_r.femur_med_r.torque.X	femur_med_tibia_r.femur_med_r.torque.Y	femur_med_tibia_r.femur_med_r.torque.Z	femur_lat_tibia_r.tibia_upper_r.force.X	femur_lat_tibia_r.tibia_upper_r.force.Y	femur_lat_tibia_r.tibia_upper_r.force.Z	femur_lat_tibia_r.tibia_upper_r.torque.X	femur_lat_tibia_r.tibia_upper_r.torque.Y	femur_lat_tibia_r.tibia_upper_r.torque.Z	femur_lat_tibia_r.femur_lat_r.force.X	femur_lat_tibia_r.femur_lat_r.force.Y	femur_lat_tibia_r.femur_lat_r.force.Z	femur_lat_tibia_r.femur_lat_r.torque.X	femur_lat_tibia_r.femur_lat_r.torque.Y	femur_lat_tibia_r.femur_lat_r.torque.Z	aACL_R	pACL_R	aPCL_R	pPCL_R	aMCL_R	mMCL_R	pMCL_R	aLCL_R	mLCL_R	pLCL_R	ground_prescribedForce_fx	ground_prescribedForce_fy	ground_prescribedForce_fz	ground_prescribedForce_px	ground_prescribedForce_py	ground_prescribedForce_pz
      0.74809578	      7.54758879	      5.66550375	      6.06444571	      2.65882288	      3.17882436	      3.19258900	      8.58598640	      4.07927369	      7.78813149	      7.29556784	      1.54696416	      5.61303103	      4.14088708	      2.91879621	      2.45361284	      3.98725003	      3.83038767	      2.23861822	      1.56242755	      3.65591323	      5.55575846	      4.14723016	     22.64715215	     12.96634880	      3.62651704	      2.85424374	      4.08984345	     10.65506236	      6.55731282	      6.68870573	      8.35956407	      5.16755093	      2.79227196	      9.19755395	     13.31024327	      2.92569987	      2.33173981	     17.11937861	      4.05593144	      8.39792631	     11.37818764	      9.55339899	      2.50614614	      7.54758879	      5.66550375	      6.06444571	      2.65882288	      3.17882436	      3.19258900	      8.74472331	      4.08304059	      7.68246286	      7.21570777	      1.51967896	      5.61303103	      4.14088708	      2.91879621	      2.45361284	      3.98725003	      4.09689323	      2.23861822	      1.55863521	      3.65591323	      5.55575846	      4.14723016	     22.64715215	     12.96634880	      3.62651704	      2.85424374	      4.08984345	     10.66663595	      6.59238642	      7.56198792	      8.13118218	     13.95256698	      6.47849777	     31.08550927	     42.35888481	      2.58027757	      2.83864055	      8.45139646	      4.33380795	     12.44621132	      2.00580625	      5.36389907	      1.70252929	     25.00552604	     25.00552604	      8.99973371	      8.99973371	     26.80436991	     26.80436991	     34.90253975	     81.36487715	     13.80330929	     -7.73284742	      0.84041064	     14.62059828	    -34.90253975	    -81.36487715	    -13.80330929	      2.74663889	     -0.98632151	     -1.15256989	     32.64578581	     84.44547084	     10.02085028	     -2.31539604	     -0.79907697	     14.18942480	    -32.64578581	    -84.44547084	    -10.02085028	     -1.20314870	      0.66397473	     -1.58825552	      0.00000000	      0.00000000	      0.00000000	      0.00000000	      0.00000000	      0.00000000	      0.00000000	      0.00000000	      0.00000000	      0.00000000	      0.00000000	      0.00000000	      0.00000000	      0.00000000	      0.00000000	      0.00000000	      0.00000000	      0.00000000	      0.00000000	      0.00000000	      0.00000000	      0.00000000	      0.00000000	      0.00000000	     31.09930007	     55.99118897	      0.00000000	      0.00000000	      0.00000000	      1.45851984	     12.55410871	     -0.56181144	      0.00000000	      0.10312264	    110.00000000	      0.00000000	      0.00000000	      0.03000000	     -0.03000000	      0.00000000
      0.75069180	      7.54752081	      5.66545691	      6.06439495	      2.65880183	      3.17880159	      3.19256031	      8.56943565	      4.07016403	      7.77528038	      7.22900838	      1.51302737	      5.61298407	      4.14085459	      2.91877225	      2.45359222	      3.98721290	      3.82720315	      2.23860038	      1.54993083	      3.65588303	      5.55571242	      4.14719516	     22.64706722	     12.96625333	      3.62648770	      2.85423002	      4.08978823	     10.63601179	      6.51138165	      6.64276945	      8.31241834	      5.17265449	      2.80205958	      9.21760180	     13.38146965	      2.93043234	      2.32307816	     17.11578711	      4.04578838	      8.39761886	     11.36949483	      9.61830871	      2.51868489	      7.54752081	      5.66545691	      6.06439495	      2.65880183	      3.17880159	      3.19256031	      8.74462414	      4.08300417	      7.68238041	      7.21564936	      1.51966698	      5.61298407	      4.14085459	      2.91877225	      2.45359222	      3.98721290	      4.09687028	      2.23860038	      1.55862272	      3.65588303	      5.55571242	      4.14719516	     22.64706722	     12.96625333	      3.62648770	      2.85423002	      4.08978823	     10.66652377	      6.59233067	      7.56192274	      8.13111245	     13.95230599	      6.47837635	     31.08509086	     42.35872171	      2.57815324	      2.83766667	      8.45131208	      4.33375726	     12.44608591	      2.00579144	      5.36490970	      1.70280374	     25.00532759	     25.00532759	      8.99965593	      8.99965593	     26.80430004	     26.80430004	     33.78296898	     78.96298601	     13.43495976	     -7.52072377	      0.81328014	     14.15140425	    -33.78296898	    -78.96298601	    -13.43495976	      2.66661396	     -0.95453061	     -1.11528035	     31.73724193	     82.32365016	      9.81575590	     -2.27701688	     -0.77753137	     13.79834399	    -31.73724193	    -82.32365016	     -9.81575590	     -1.17113316	      0.64617036	     -1.54774499	      0.00000000	      0.00000000	      0.00000000	      0.00000000	      0.00000000	      0.00000000	      0.00000000	      0.00000000	      0.00000000	      0.00000000	      0.00000000	      0.00000000	      0.00000000	      0.00000000	      0.00000000	      0.00000000	      0.00000000	      0.00000000	      0.00000000	      0.00000000	      0.00000000	      0.00000000	      0.00000000	      0.00000000	     31.48059481	     56.37350311	      0.00000000	      0.00000000	      0.00000000	      2.53951373	     13.60541842	      0.95682219	      0.00000000	      1.61845264	    110.00000000	      0.00000000	      0.00000000	      0.03000000	     -0.03000000	      0.00000000
      0.75328783	      7.54745506	      5.66541160	      6.06434585	      2.65878147	      3.17877956	      3.19253255	      8.57766931	      4.07480266	      7.78306893	      7.25702787	      1.52638393	      5.61293867	      4.14082317	      2.91874908	      2.45357228	      3.98717699	      3.82935927	      2.23858313	      1.55545955	      3.65585382	      5.55566790	      4.14716131	     22.64698509	     12.96616100	      3.62645933	      2.85421674	      4.08973482	     10.64574368	      6.53438044	      6.66532508	      8.33595623	      5.21149393	      2.82770714	      9.26922186	     13.46448976	      2.93567613	      2.31860143	     17.10354117	      4.03486284	      8.39566674	     11.34976141	      9.67778869	      2.52761417	      7.54745506	      5.66541160	      6.06434585	      2.65878147	      3.17877956	      3.19253255	      8.74452823	      4.08296895	      7.68230068	      7.21559287	      1.51965540	      5.61293867	      4.14082317	      2.91874908	      2.45357228	      3.98717699	      4.09684808	      2.23858313	      1.55861063	      3.65585382	      5.55566790	      4.14716131	     22.64698509	     12.96616100	      3.62645933	      2.85421674	      4.08973482	     10.66641527	      6.59227676	      7.56185970	      8.13104501	     13.95205351	      6.47825888	     31.08468619	     42.35856396	      2.57601911	      2.83669158	      8.45123047	      4.33370823	     12.44596462	      2.00577711	      5.36592563	      1.70307919	     25.00513567	     25.00513567	      8.99958070	      8.99958070	     26.80423247	     26.80423247	     34.35226840	     80.12228355	     13.62159769	     -7.62669647	      0.82699308	     14.38999962	    -34.35226840	    -80.12228355	    -13.62159769	      2.70532042	     -0.97057371	     -1.13425365	     32.24572076	     83.56951113	      9.93970524	     -2.30106160	     -0.78969101	     14.01810626	    -32.24572076	    -83.56951113	     -9.93970524	     -1.18988968	      0.65627066	     -1.57124680	      0.00000000	      0.00000000	      0.00000000	      0.00000000	      0.00000000	      0.00000000	      0.00000000	      0.00000000	      0.00000000	      0.00000000	      0.00000000	      0.00000000	      0.00000000	      0.00000000	      0.00000000	      0.00000000	      0.00000000	      0.00000000	      0.00000000	      0.00000000	      0.00000000	      0.00000000	      0.00000000	      0.00000000	     31.31081441	     56.22716489	      0.00000000	      0.00000000	      0.00000000	      1.99179796	     13.06647521	      0.17997299	      0.00000000	      0.84525177	    110.00000000	      0.00000000	      0.00000000	      0.03000000	     -0.03000000	      0.00000000
      0.75647420	      7.54737731	      5.66535802	      6.06428779	      2.65875739	      3.17875352	      3.19249973	      8.56978675	      4.07038252	      7.77679334	      7.22457202	      1.50947493	      5.61288496	      4.14078601	      2.91872168	      2.45354870	      3.98713453	      3.82794622	      2.23856273	      1.54957938	      3.65581928	      5.55561524	      4.14712129	     22.64688795	     12.96605180	      3.62642577	      2.85420105	      4.08967165	     10.63631608	      6.51188221	      6.64277960	      8.31294173	      5.23446593	      2.84779930	      9.30838246	     13.57298297	      2.94172622	      2.31716437	     17.09597668	      4.01930035	      8.38880372	     11.33087475	      9.74793879	      2.53619102	      7.54737731	      5.66535802	      6.06428779	      2.65875739	      3.17875352	      3.19249973	      8.74441481	      4.08292729	      7.68220639	      7.21552607	      1.51964170	      5.61288496	      4.14078601	      2.91872168	      2.45354870	      3.98713453	      4.09682183	      2.23856273	      1.55859634	      3.65581928	      5.55561524	      4.14712129	     22.64688795	     12.96605180	      3.62642577	      2.85420105	      4.08967165	     10.66628697	      6.59221300	      7.56178515	      8.13096526	     13.95175483	      6.47811993	     31.08420763	     42.35837741	      2.57338611	      2.83549306	      8.45113396	      4.33365025	     12.44582116	      2.00576017	      5.36717972	      1.70341860	     25.00490870	     25.00490870	      8.99949174	      8.99949174	     26.80415256	     26.80415256	     33.81042787	     78.92900689	     13.44363633	     -7.52336876	      0.81378628	     14.16289151	    -33.81042787	    -78.92900689	    -13.44363633	      2.66564104	     -0.95509661	     -1.11617318	     31.81390650	     82.58220458	      9.84964182	     -2.28550482	     -0.77957939	     13.83250610	    -31.81390650	    -82.58220458	     -9.84964182	     -1.17480189	      0.64794857	     -1.55223852	      0.00000000	      0.00000000	      0.00000000	      0.00000000	      0.00000000	      0.00000000	      0.00000000	      0.00000000	      0.00000000	      0.00000000	      0.00000000	      0.00000000	      0.00000000	      0.00000000	      0.00000000	      0.00000000	      0.00000000	      0.00000000	      0.00000000	      0.00000000	      0.00000000	      0.00000000	      0.00000000	      0.00000000	     31.51174568	     56.44058133	      0.00000000	      0.00000000	      0.00000000	      2.53049985	     13.58738374	      0.92125871	      0.00000000	      1.58549667	    110.00000000	      0.00000000	      0.00000000	      0.03000000	     -0.03000000	      0.00000000
